<svg width="79" height="127" viewBox="0 0 79 127" fill="none" xmlns="http://www.w3.org/2000/svg">
<path d="M20.3592 124V114.06H24.6012C25.0772 114.06 25.5112 114.158 25.9032 114.354C26.3046 114.541 26.6499 114.797 26.9392 115.124C27.2286 115.441 27.4526 115.801 27.6112 116.202C27.7699 116.603 27.8492 117.014 27.8492 117.434C27.8492 118.003 27.7139 118.545 27.4432 119.058C27.1819 119.571 26.8132 119.991 26.3372 120.318C25.8706 120.635 25.3152 120.794 24.6712 120.794H22.6552V124H20.3592ZM22.6552 118.792H24.5312C24.7086 118.792 24.8719 118.741 25.0212 118.638C25.1706 118.535 25.2919 118.381 25.3852 118.176C25.4786 117.971 25.5252 117.719 25.5252 117.42C25.5252 117.112 25.4692 116.86 25.3572 116.664C25.2546 116.459 25.1192 116.309 24.9512 116.216C24.7926 116.123 24.6246 116.076 24.4472 116.076H22.6552V118.792ZM33.4359 124.084C32.6892 124.084 32.0125 123.944 31.4059 123.664C30.8085 123.375 30.2905 122.992 29.8519 122.516C29.4225 122.031 29.0912 121.489 28.8579 120.892C28.6245 120.285 28.5079 119.66 28.5079 119.016C28.5079 118.353 28.6292 117.723 28.8719 117.126C29.1239 116.529 29.4692 115.997 29.9079 115.53C30.3559 115.054 30.8832 114.681 31.4899 114.41C32.0965 114.139 32.7592 114.004 33.4779 114.004C34.2152 114.004 34.8825 114.149 35.4799 114.438C36.0865 114.718 36.6045 115.101 37.0339 115.586C37.4725 116.071 37.8085 116.617 38.0419 117.224C38.2752 117.821 38.3919 118.433 38.3919 119.058C38.3919 119.721 38.2705 120.351 38.0279 120.948C37.7852 121.545 37.4399 122.082 36.9919 122.558C36.5439 123.025 36.0166 123.398 35.4099 123.678C34.8125 123.949 34.1545 124.084 33.4359 124.084ZM30.8459 119.044C30.8459 119.427 30.9019 119.8 31.0139 120.164C31.1259 120.519 31.2892 120.836 31.5039 121.116C31.7279 121.396 32.0032 121.62 32.3299 121.788C32.6565 121.956 33.0299 122.04 33.4499 122.04C33.8885 122.04 34.2712 121.956 34.5979 121.788C34.9245 121.611 35.1952 121.377 35.4099 121.088C35.6246 120.799 35.7832 120.477 35.8859 120.122C35.9979 119.758 36.0539 119.389 36.0539 119.016C36.0539 118.633 35.9979 118.265 35.8859 117.91C35.7739 117.555 35.6059 117.238 35.3819 116.958C35.1579 116.669 34.8825 116.445 34.5559 116.286C34.2292 116.127 33.8605 116.048 33.4499 116.048C33.0112 116.048 32.6285 116.132 32.3019 116.3C31.9845 116.468 31.7139 116.697 31.4899 116.986C31.2752 117.266 31.1119 117.588 30.9999 117.952C30.8972 118.307 30.8459 118.671 30.8459 119.044ZM44.0726 124.084C43.3259 124.084 42.6493 123.944 42.0426 123.664C41.4453 123.375 40.9273 122.992 40.4886 122.516C40.0593 122.031 39.7279 121.489 39.4946 120.892C39.2613 120.285 39.1446 119.66 39.1446 119.016C39.1446 118.353 39.2659 117.723 39.5086 117.126C39.7606 116.529 40.1059 115.997 40.5446 115.53C40.9926 115.054 41.5199 114.681 42.1266 114.41C42.7333 114.139 43.3959 114.004 44.1146 114.004C44.8519 114.004 45.5193 114.149 46.1166 114.438C46.7233 114.718 47.2413 115.101 47.6706 115.586C48.1093 116.071 48.4453 116.617 48.6786 117.224C48.9119 117.821 49.0286 118.433 49.0286 119.058C49.0286 119.721 48.9073 120.351 48.6646 120.948C48.4219 121.545 48.0766 122.082 47.6286 122.558C47.1806 123.025 46.6533 123.398 46.0466 123.678C45.4493 123.949 44.7913 124.084 44.0726 124.084ZM41.4826 119.044C41.4826 119.427 41.5386 119.8 41.6506 120.164C41.7626 120.519 41.9259 120.836 42.1406 121.116C42.3646 121.396 42.6399 121.62 42.9666 121.788C43.2933 121.956 43.6666 122.04 44.0866 122.04C44.5253 122.04 44.9079 121.956 45.2346 121.788C45.5613 121.611 45.8319 121.377 46.0466 121.088C46.2613 120.799 46.4199 120.477 46.5226 120.122C46.6346 119.758 46.6906 119.389 46.6906 119.016C46.6906 118.633 46.6346 118.265 46.5226 117.91C46.4106 117.555 46.2426 117.238 46.0186 116.958C45.7946 116.669 45.5193 116.445 45.1926 116.286C44.8659 116.127 44.4973 116.048 44.0866 116.048C43.6479 116.048 43.2653 116.132 42.9386 116.3C42.6213 116.468 42.3506 116.697 42.1266 116.986C41.9119 117.266 41.7486 117.588 41.6366 117.952C41.5339 118.307 41.4826 118.671 41.4826 119.044ZM50.3553 124V114.06H52.6513V121.984H57.4673V124H50.3553Z" fill="#213C73"/>
<rect x="2" y="24" width="75" height="75" rx="5" stroke="#213C73" stroke-width="2.5"/>
<line x1="40.75" y1="48.75" x2="40.75" y2="73.25" stroke="#213C73" stroke-width="3.5" stroke-linecap="round"/>
<line x1="27.75" y1="61.25" x2="52.25" y2="61.25" stroke="#213C73" stroke-width="3.5" stroke-linecap="round"/>
<path d="M16.7999 7.946C16.7999 7.33933 16.9119 6.74667 17.1359 6.168C17.3599 5.58 17.6865 5.048 18.1159 4.572C18.5452 4.096 19.0679 3.718 19.6839 3.438C20.2999 3.14867 20.9999 3.004 21.7839 3.004C22.7172 3.004 23.5245 3.20467 24.2059 3.606C24.8965 4.00733 25.4099 4.53 25.7459 5.174L23.9819 6.406C23.8325 6.05133 23.6319 5.776 23.3799 5.58C23.1372 5.384 22.8665 5.24867 22.5679 5.174C22.2785 5.09 21.9985 5.048 21.7279 5.048C21.2892 5.048 20.9065 5.13667 20.5799 5.314C20.2532 5.482 19.9825 5.71067 19.7679 6C19.5532 6.28933 19.3945 6.61133 19.2919 6.966C19.1892 7.32067 19.1379 7.67533 19.1379 8.03C19.1379 8.422 19.1985 8.8 19.3199 9.164C19.4412 9.528 19.6139 9.85 19.8379 10.13C20.0712 10.41 20.3512 10.634 20.6779 10.802C21.0045 10.9607 21.3639 11.04 21.7559 11.04C22.0359 11.04 22.3205 10.9933 22.6099 10.9C22.8992 10.8067 23.1652 10.662 23.4079 10.466C23.6599 10.2607 23.8512 9.99467 23.9819 9.668L25.8579 10.774C25.6619 11.2593 25.3399 11.6747 24.8919 12.02C24.4439 12.3653 23.9352 12.6313 23.3659 12.818C22.8059 12.9953 22.2505 13.084 21.6999 13.084C20.9812 13.084 20.3185 12.9393 19.7119 12.65C19.1145 12.3513 18.5965 11.9593 18.1579 11.474C17.7285 10.9793 17.3925 10.4287 17.1499 9.822C16.9165 9.206 16.7999 8.58067 16.7999 7.946ZM27.0125 13V3.06H31.4925C31.9592 3.06 32.3885 3.158 32.7805 3.354C33.1819 3.54067 33.5272 3.79733 33.8165 4.124C34.1059 4.44133 34.3299 4.80067 34.4885 5.202C34.6565 5.60333 34.7405 6.00933 34.7405 6.42C34.7405 6.83067 34.6752 7.22267 34.5445 7.596C34.4139 7.96 34.2272 8.29133 33.9845 8.59C33.7419 8.87933 33.4525 9.11733 33.1165 9.304L35.3005 13H32.7665L30.8625 9.794H29.3085V13H27.0125ZM29.3085 7.792H31.4085C31.5952 7.792 31.7585 7.736 31.8985 7.624C32.0479 7.50267 32.1692 7.33933 32.2625 7.134C32.3559 6.92867 32.4025 6.69067 32.4025 6.42C32.4025 6.14933 32.3465 5.916 32.2345 5.72C32.1319 5.51467 32.0012 5.356 31.8425 5.244C31.6839 5.132 31.5159 5.076 31.3385 5.076H29.3085V7.792ZM43.3775 10.984V13H36.3915V3.06H43.2515V5.076H38.6875V7.008H42.6075V8.87H38.6875V10.984H43.3775ZM47.2783 3.06H49.7563L53.1723 13H50.8203L50.0503 10.774H46.9563L46.2003 13H43.8483L47.2783 3.06ZM49.6723 9.192L48.5103 5.37L47.3203 9.192H49.6723ZM54.1512 13V3.06H58.6312C59.0979 3.06 59.5272 3.158 59.9192 3.354C60.3206 3.54067 60.6659 3.79733 60.9552 4.124C61.2446 4.44133 61.4686 4.80067 61.6272 5.202C61.7952 5.60333 61.8792 6.00933 61.8792 6.42C61.8792 6.83067 61.8139 7.22267 61.6832 7.596C61.5526 7.96 61.3659 8.29133 61.1232 8.59C60.8806 8.87933 60.5912 9.11733 60.2552 9.304L62.4392 13H59.9052L58.0012 9.794H56.4472V13H54.1512ZM56.4472 7.792H58.5472C58.7339 7.792 58.8972 7.736 59.0372 7.624C59.1866 7.50267 59.3079 7.33933 59.4012 7.134C59.4946 6.92867 59.5412 6.69067 59.5412 6.42C59.5412 6.14933 59.4852 5.916 59.3732 5.72C59.2706 5.51467 59.1399 5.356 58.9812 5.244C58.8226 5.132 58.6546 5.076 58.4772 5.076H56.4472V7.792Z" fill="#213C73"/>
</svg>
