<svg width="114" height="225" viewBox="0 0 114 225" fill="none" xmlns="http://www.w3.org/2000/svg">
<g clip-path="url(#clip0_378_740)">
<path d="M57.393 7.69587C59.4374 7.69587 61.0948 6.03851 61.0948 3.99406C61.0948 1.9496 59.4374 0.292236 57.393 0.292236C55.3485 0.292236 53.6912 1.9496 53.6912 3.99406C53.6912 6.03851 55.3485 7.69587 57.393 7.69587Z" fill="#213C73"/>
<path opacity="0.2" d="M57.393 27.4307C59.4374 27.4307 61.0948 25.7734 61.0948 23.7289C61.0948 21.6845 59.4374 20.0271 57.393 20.0271C55.3485 20.0271 53.6912 21.6845 53.6912 23.7289C53.6912 25.7734 55.3485 27.4307 57.393 27.4307Z" fill="#ED2C25"/>
<path d="M57.393 47.1983C59.4374 47.1983 61.0948 45.541 61.0948 43.4965C61.0948 41.452 59.4374 39.7947 57.393 39.7947C55.3485 39.7947 53.6912 41.452 53.6912 43.4965C53.6912 45.541 55.3485 47.1983 57.393 47.1983Z" fill="#213C73"/>
<path opacity="0.2" d="M57.393 66.9332C59.4374 66.9332 61.0948 65.2758 61.0948 63.2314C61.0948 61.1869 59.4374 59.5295 57.393 59.5295C55.3485 59.5295 53.6912 61.1869 53.6912 63.2314C53.6912 65.2758 55.3485 66.9332 57.393 66.9332Z" fill="#213C73"/>
<path opacity="0.2" d="M83.8368 66.9332C85.8813 66.9332 87.5387 65.2758 87.5387 63.2314C87.5387 61.1869 85.8813 59.5295 83.8368 59.5295C81.7924 59.5295 80.135 61.1869 80.135 63.2314C80.135 65.2758 81.7924 66.9332 83.8368 66.9332Z" fill="#213C73"/>
<path d="M57.393 86.7005C59.4374 86.7005 61.0948 85.0432 61.0948 82.9987C61.0948 80.9542 59.4374 79.2969 57.393 79.2969C55.3485 79.2969 53.6912 80.9542 53.6912 82.9987C53.6912 85.0432 55.3485 86.7005 57.393 86.7005Z" fill="#ED2C25"/>
<path opacity="0.2" d="M83.8368 86.7005C85.8813 86.7005 87.5387 85.0432 87.5387 82.9987C87.5387 80.9542 85.8813 79.2969 83.8368 79.2969C81.7924 79.2969 80.135 80.9542 80.135 82.9987C80.135 85.0432 81.7924 86.7005 83.8368 86.7005Z" fill="#ED2C25"/>
<path d="M57.393 106.468C59.4374 106.468 61.0948 104.811 61.0948 102.767C61.0948 100.722 59.4374 99.0647 57.393 99.0647C55.3485 99.0647 53.6912 100.722 53.6912 102.767C53.6912 104.811 55.3485 106.468 57.393 106.468Z" fill="#213C73"/>
<path d="M83.8368 106.468C85.8813 106.468 87.5387 104.811 87.5387 102.767C87.5387 100.722 85.8813 99.0647 83.8368 99.0647C81.7924 99.0647 80.135 100.722 80.135 102.767C80.135 104.811 81.7924 106.468 83.8368 106.468Z" fill="#ED2C25"/>
<path d="M110.289 106.468C112.333 106.468 113.991 104.811 113.991 102.767C113.991 100.722 112.333 99.0647 110.289 99.0647C108.244 99.0647 106.587 100.722 106.587 102.767C106.587 104.811 108.244 106.468 110.289 106.468Z" fill="#213C73"/>
<path d="M57.393 126.195C59.4374 126.195 61.0948 124.538 61.0948 122.493C61.0948 120.449 59.4374 118.791 57.393 118.791C55.3485 118.791 53.6912 120.449 53.6912 122.493C53.6912 124.538 55.3485 126.195 57.393 126.195Z" fill="#ED2C25"/>
<path opacity="0.2" d="M110.289 126.195C112.333 126.195 113.991 124.538 113.991 122.493C113.991 120.449 112.333 118.791 110.289 118.791C108.244 118.791 106.587 120.449 106.587 122.493C106.587 124.538 108.244 126.195 110.289 126.195Z" fill="#ED2C25"/>
<path opacity="0.2" d="M57.393 145.962C59.4374 145.962 61.0948 144.305 61.0948 142.261C61.0948 140.216 59.4374 138.559 57.393 138.559C55.3485 138.559 53.6912 140.216 53.6912 142.261C53.6912 144.305 55.3485 145.962 57.393 145.962Z" fill="#213C73"/>
<path opacity="0.2" d="M83.8368 145.962C85.8813 145.962 87.5387 144.305 87.5387 142.261C87.5387 140.216 85.8813 138.559 83.8368 138.559C81.7924 138.559 80.135 140.216 80.135 142.261C80.135 144.305 81.7924 145.962 83.8368 145.962Z" fill="#ED2C25"/>
<path d="M110.289 145.962C112.333 145.962 113.991 144.305 113.991 142.261C113.991 140.216 112.333 138.559 110.289 138.559C108.244 138.559 106.587 140.216 106.587 142.261C106.587 144.305 108.244 145.962 110.289 145.962Z" fill="#213C73"/>
<path d="M57.393 165.73C59.4374 165.73 61.0948 164.073 61.0948 162.028C61.0948 159.984 59.4374 158.326 57.393 158.326C55.3485 158.326 53.6912 159.984 53.6912 162.028C53.6912 164.073 55.3485 165.73 57.393 165.73Z" fill="#213C73"/>
<path opacity="0.2" d="M83.8368 165.73C85.8813 165.73 87.5387 164.073 87.5387 162.028C87.5387 159.984 85.8813 158.326 83.8368 158.326C81.7924 158.326 80.135 159.984 80.135 162.028C80.135 164.073 81.7924 165.73 83.8368 165.73Z" fill="#213C73"/>
<path opacity="0.2" d="M30.9408 185.465C32.9853 185.465 34.6427 183.808 34.6427 181.763C34.6427 179.719 32.9853 178.061 30.9408 178.061C28.8964 178.061 27.239 179.719 27.239 181.763C27.239 183.808 28.8964 185.465 30.9408 185.465Z" fill="#ED2C25"/>
<path d="M57.393 185.465C59.4374 185.465 61.0948 183.808 61.0948 181.763C61.0948 179.719 59.4374 178.061 57.393 178.061C55.3485 178.061 53.6912 179.719 53.6912 181.763C53.6912 183.808 55.3485 185.465 57.393 185.465Z" fill="#ED2C25"/>
<path d="M4.48893 185.465C6.53339 185.465 8.19075 183.808 8.19075 181.763C8.19075 179.719 6.53339 178.061 4.48893 178.061C2.44447 178.061 0.787109 179.719 0.787109 181.763C0.787109 183.808 2.44447 185.465 4.48893 185.465Z" fill="#213C73"/>
<path d="M30.9408 205.232C32.9853 205.232 34.6427 203.575 34.6427 201.531C34.6427 199.486 32.9853 197.829 30.9408 197.829C28.8964 197.829 27.239 199.486 27.239 201.531C27.239 203.575 28.8964 205.232 30.9408 205.232Z" fill="#213C73"/>
<path opacity="0.2" d="M57.393 205.232C59.4374 205.232 61.0948 203.575 61.0948 201.531C61.0948 199.486 59.4374 197.829 57.393 197.829C55.3485 197.829 53.6912 199.486 53.6912 201.531C53.6912 203.575 55.3485 205.232 57.393 205.232Z" fill="#213C73"/>
<path d="M57.393 225C59.4374 225 61.0948 223.343 61.0948 221.298C61.0948 219.254 59.4374 217.596 57.393 217.596C55.3485 217.596 53.6912 219.254 53.6912 221.298C53.6912 223.343 55.3485 225 57.393 225Z" fill="#ED2C25"/>
</g>
<defs>
<clipPath id="clip0_378_740">
<rect width="113.204" height="224.708" fill="white" transform="translate(0.787109 0.292236)"/>
</clipPath>
</defs>
</svg>
