<svg width="87" height="265" viewBox="0 0 87 265" fill="none" xmlns="http://www.w3.org/2000/svg">
<g clip-path="url(#clip0_378_767)">
<path d="M56.6059 7.59041C58.6503 7.59041 60.3077 5.93304 60.3077 3.88859C60.3077 1.84413 58.6503 0.186768 56.6059 0.186768C54.5614 0.186768 52.9041 1.84413 52.9041 3.88859C52.9041 5.93304 54.5614 7.59041 56.6059 7.59041Z" fill="#213C73"/>
<path d="M56.6059 27.325C58.6503 27.325 60.3077 25.6677 60.3077 23.6232C60.3077 21.5787 58.6503 19.9214 56.6059 19.9214C54.5614 19.9214 52.9041 21.5787 52.9041 23.6232C52.9041 25.6677 54.5614 27.325 56.6059 27.325Z" fill="#ED2C25"/>
<path opacity="0.2" d="M56.6059 47.0928C58.6503 47.0928 60.3077 45.4355 60.3077 43.391C60.3077 41.3466 58.6503 39.6892 56.6059 39.6892C54.5614 39.6892 52.9041 41.3466 52.9041 43.391C52.9041 45.4355 54.5614 47.0928 56.6059 47.0928Z" fill="#213C73"/>
<path d="M83.0497 47.0928C85.0942 47.0928 86.7515 45.4355 86.7515 43.391C86.7515 41.3466 85.0942 39.6892 83.0497 39.6892C81.0053 39.6892 79.3479 41.3466 79.3479 43.391C79.3479 45.4355 81.0053 47.0928 83.0497 47.0928Z" fill="#213C73"/>
<path d="M30.154 66.8277C32.1984 66.8277 33.8558 65.1703 33.8558 63.1259C33.8558 61.0814 32.1984 59.4241 30.154 59.4241C28.1095 59.4241 26.4521 61.0814 26.4521 63.1259C26.4521 65.1703 28.1095 66.8277 30.154 66.8277Z" fill="#213C73"/>
<path d="M56.6059 66.8277C58.6503 66.8277 60.3077 65.1703 60.3077 63.1259C60.3077 61.0814 58.6503 59.4241 56.6059 59.4241C54.5614 59.4241 52.9041 61.0814 52.9041 63.1259C52.9041 65.1703 54.5614 66.8277 56.6059 66.8277Z" fill="#213C73"/>
<path d="M83.0497 66.8277C85.0942 66.8277 86.7515 65.1703 86.7515 63.1259C86.7515 61.0814 85.0942 59.4241 83.0497 59.4241C81.0053 59.4241 79.3479 61.0814 79.3479 63.1259C79.3479 65.1703 81.0053 66.8277 83.0497 66.8277Z" fill="#ED2C25"/>
<path d="M30.154 86.595C32.1984 86.595 33.8558 84.9377 33.8558 82.8932C33.8558 80.8488 32.1984 79.1914 30.154 79.1914C28.1095 79.1914 26.4521 80.8488 26.4521 82.8932C26.4521 84.9377 28.1095 86.595 30.154 86.595Z" fill="#213C73"/>
<path opacity="0.2" d="M56.6059 86.595C58.6503 86.595 60.3077 84.9377 60.3077 82.8932C60.3077 80.8488 58.6503 79.1914 56.6059 79.1914C54.5614 79.1914 52.9041 80.8488 52.9041 82.8932C52.9041 84.9377 54.5614 86.595 56.6059 86.595Z" fill="#ED2C25"/>
<path d="M30.154 106.363C32.1984 106.363 33.8558 104.706 33.8558 102.661C33.8558 100.617 32.1984 98.9592 30.154 98.9592C28.1095 98.9592 26.4521 100.617 26.4521 102.661C26.4521 104.706 28.1095 106.363 30.154 106.363Z" fill="#ED2C25"/>
<path opacity="0.2" d="M56.6059 106.363C58.6503 106.363 60.3077 104.706 60.3077 102.661C60.3077 100.617 58.6503 98.9592 56.6059 98.9592C54.5614 98.9592 52.9041 100.617 52.9041 102.661C52.9041 104.706 54.5614 106.363 56.6059 106.363Z" fill="#ED2C25"/>
<path d="M83.0497 106.363C85.0942 106.363 86.7515 104.706 86.7515 102.661C86.7515 100.617 85.0942 98.9592 83.0497 98.9592C81.0053 98.9592 79.3479 100.617 79.3479 102.661C79.3479 104.706 81.0053 106.363 83.0497 106.363Z" fill="#213C73"/>
<path opacity="0.2" d="M30.154 126.089C32.1984 126.089 33.8558 124.432 33.8558 122.388C33.8558 120.343 32.1984 118.686 30.154 118.686C28.1095 118.686 26.4521 120.343 26.4521 122.388C26.4521 124.432 28.1095 126.089 30.154 126.089Z" fill="#213C73"/>
<path opacity="0.2" d="M56.6059 126.089C58.6503 126.089 60.3077 124.432 60.3077 122.388C60.3077 120.343 58.6503 118.686 56.6059 118.686C54.5614 118.686 52.9041 120.343 52.9041 122.388C52.9041 124.432 54.5614 126.089 56.6059 126.089Z" fill="#213C73"/>
<path opacity="0.2" d="M83.0497 126.089C85.0942 126.089 86.7515 124.432 86.7515 122.388C86.7515 120.343 85.0942 118.686 83.0497 118.686C81.0053 118.686 79.3479 120.343 79.3479 122.388C79.3479 124.432 81.0053 126.089 83.0497 126.089Z" fill="#213C73"/>
<path d="M3.70182 145.857C5.74628 145.857 7.40364 144.2 7.40364 142.155C7.40364 140.111 5.74628 138.453 3.70182 138.453C1.65736 138.453 0 140.111 0 142.155C0 144.2 1.65736 145.857 3.70182 145.857Z" fill="#213C73"/>
<path d="M56.6059 145.857C58.6503 145.857 60.3077 144.2 60.3077 142.155C60.3077 140.111 58.6503 138.453 56.6059 138.453C54.5614 138.453 52.9041 140.111 52.9041 142.155C52.9041 144.2 54.5614 145.857 56.6059 145.857Z" fill="#ED2C25"/>
<path opacity="0.2" d="M83.0497 145.857C85.0942 145.857 86.7515 144.2 86.7515 142.155C86.7515 140.111 85.0942 138.453 83.0497 138.453C81.0053 138.453 79.3479 140.111 79.3479 142.155C79.3479 144.2 81.0053 145.857 83.0497 145.857Z" fill="#213C73"/>
<path d="M3.70182 165.624C5.74628 165.624 7.40364 163.967 7.40364 161.923C7.40364 159.878 5.74628 158.221 3.70182 158.221C1.65736 158.221 0 159.878 0 161.923C0 163.967 1.65736 165.624 3.70182 165.624Z" fill="#ED2C25"/>
<path opacity="0.2" d="M30.154 165.624C32.1984 165.624 33.8558 163.967 33.8558 161.923C33.8558 159.878 32.1984 158.221 30.154 158.221C28.1095 158.221 26.4521 159.878 26.4521 161.923C26.4521 163.967 28.1095 165.624 30.154 165.624Z" fill="#213C73"/>
<path d="M56.6059 165.624C58.6503 165.624 60.3077 163.967 60.3077 161.923C60.3077 159.878 58.6503 158.221 56.6059 158.221C54.5614 158.221 52.9041 159.878 52.9041 161.923C52.9041 163.967 54.5614 165.624 56.6059 165.624Z" fill="#213C73"/>
<path d="M83.0497 165.624C85.0942 165.624 86.7515 163.967 86.7515 161.923C86.7515 159.878 85.0942 158.221 83.0497 158.221C81.0053 158.221 79.3479 159.878 79.3479 161.923C79.3479 163.967 81.0053 165.624 83.0497 165.624Z" fill="#ED2C25"/>
<path d="M30.154 185.359C32.1984 185.359 33.8558 183.702 33.8558 181.658C33.8558 179.613 32.1984 177.956 30.154 177.956C28.1095 177.956 26.4521 179.613 26.4521 181.658C26.4521 183.702 28.1095 185.359 30.154 185.359Z" fill="#213C73"/>
<path opacity="0.2" d="M83.0497 185.359C85.0942 185.359 86.7515 183.702 86.7515 181.658C86.7515 179.613 85.0942 177.956 83.0497 177.956C81.0053 177.956 79.3479 179.613 79.3479 181.658C79.3479 183.702 81.0053 185.359 83.0497 185.359Z" fill="#ED2C25"/>
<path d="M30.154 205.127C32.1984 205.127 33.8558 203.469 33.8558 201.425C33.8558 199.381 32.1984 197.723 30.154 197.723C28.1095 197.723 26.4521 199.381 26.4521 201.425C26.4521 203.469 28.1095 205.127 30.154 205.127Z" fill="#ED2C25"/>
<path d="M83.0497 205.127C85.0942 205.127 86.7515 203.469 86.7515 201.425C86.7515 199.381 85.0942 197.723 83.0497 197.723C81.0053 197.723 79.3479 199.381 79.3479 201.425C79.3479 203.469 81.0053 205.127 83.0497 205.127Z" fill="#213C73"/>
<path opacity="0.2" d="M83.0497 224.894C85.0942 224.894 86.7515 223.237 86.7515 221.193C86.7515 219.148 85.0942 217.491 83.0497 217.491C81.0053 217.491 79.3479 219.148 79.3479 221.193C79.3479 223.237 81.0053 224.894 83.0497 224.894Z" fill="#213C73"/>
<path d="M83.0497 244.621C85.0942 244.621 86.7515 242.964 86.7515 240.919C86.7515 238.875 85.0942 237.218 83.0497 237.218C81.0053 237.218 79.3479 238.875 79.3479 240.919C79.3479 242.964 81.0053 244.621 83.0497 244.621Z" fill="#213C73"/>
<path d="M83.0497 264.356C85.0942 264.356 86.7515 262.698 86.7515 260.654C86.7515 258.61 85.0942 256.952 83.0497 256.952C81.0053 256.952 79.3479 258.61 79.3479 260.654C79.3479 262.698 81.0053 264.356 83.0497 264.356Z" fill="#ED2C25"/>
</g>
<defs>
<clipPath id="clip0_378_767">
<rect width="86.7517" height="264.169" fill="white" transform="translate(0 0.186523)"/>
</clipPath>
</defs>
</svg>
